<?xml version="1.0" encoding="UTF-8" standalone="no"?>
<!-- Creator: CorelDRAW -->

<svg
   xml:space="preserve"
   width="14.3932mm"
   height="8.128mm"
   version="1.1"
   style="shape-rendering:geometricPrecision; text-rendering:geometricPrecision; image-rendering:optimizeQuality; fill-rule:evenodd; clip-rule:evenodd"
   viewBox="0 0 1439.32 812.8"
   id="svg30"
   sodipodi:docname="Store.svg"
   inkscape:version="1.1.2 (b8e25be833, 2022-02-05)"
   inkscape:export-filename="C:\Users\super\Documents\godot_projs\smartfit-simulator\Assets\sprites\UI\Store.png"
   inkscape:export-xdpi="2500"
   inkscape:export-ydpi="2500"
   xmlns:inkscape="http://www.inkscape.org/namespaces/inkscape"
   xmlns:sodipodi="http://sodipodi.sourceforge.net/DTD/sodipodi-0.dtd"
   xmlns="http://www.w3.org/2000/svg"
   xmlns:svg="http://www.w3.org/2000/svg"><sodipodi:namedview
   id="namedview32"
   pagecolor="#505050"
   bordercolor="#eeeeee"
   borderopacity="1"
   inkscape:pageshadow="0"
   inkscape:pageopacity="0"
   inkscape:pagecheckerboard="0"
   inkscape:document-units="mm"
   showgrid="false"
   inkscape:zoom="16"
   inkscape:cx="28.5"
   inkscape:cy="13.25"
   inkscape:window-width="1920"
   inkscape:window-height="1009"
   inkscape:window-x="-8"
   inkscape:window-y="-8"
   inkscape:window-maximized="1"
   inkscape:current-layer="Camada_x0020_1" />
 <defs
   id="defs4">
  <style
   type="text/css"
   id="style2">
   <![CDATA[
    .str0 {stroke:black;stroke-width:10.58;stroke-linejoin:round;stroke-miterlimit:22.9256}
    .fil2 {fill:none}
    .fil0 {fill:#FEFEFE}
    .fil1 {fill:#66A859}
    .fil3 {fill:black;fill-rule:nonzero}
   ]]>
  </style>
 </defs>
 <g
   id="Camada_x0020_1"
   inkscape:label="Camada 1">
  <metadata
   id="CorelCorpID_0Corel-Layer" />
  <polygon
   class="fil0"
   points="-0.01,676.91 102.86,-0.63 1336.12,-0.63 1438.99,676.91 "
   id="polygon7"
   transform="matrix(0.9933525,0,0,0.97891654,4.7828066,5.8889306)" />
  <g
   id="_2645208278320"
   transform="matrix(0.9933525,0,0,0.97891654,4.7828066,5.8889306)">
   <path
   class="fil1"
   d="m 143.89,675.05 h 143.9 c 0,79.47 -64.43,143.9 -143.9,143.9 -79.47,0 -143.9,-64.43 -143.9,-143.9 z"
   id="path9"
   style="fill:#598e5d;fill-opacity:1" />
   <path
   class="fil1"
   d="m 1089.47,-0.63 h 246.65 l 102.87,677.54 h -287.8 z m -493.31,0 h 246.66 l 20.57,677.54 h -287.8 z m -493.3,0 H 349.51 L 287.79,676.91 H -0.01 Z"
   id="path11" />
   <path
   class="fil0"
   d="m 431.69,675.05 h 143.9 c 0,79.47 -64.43,143.9 -143.9,143.9 -79.47,0 -143.9,-64.43 -143.9,-143.9 z"
   id="path13"
   style="fill:#b8b8b8;fill-opacity:1" />
   <path
   class="fil1"
   d="m 719.49,675.05 h 143.9 c 0,79.47 -64.43,143.9 -143.9,143.9 -79.47,0 -143.9,-64.43 -143.9,-143.9 z"
   id="path15"
   style="fill:#598e5d;fill-opacity:1" />
   <path
   class="fil0"
   d="m 1007.29,675.05 h 143.9 c 0,79.47 -64.43,143.9 -143.9,143.9 -79.47,0 -143.9,-64.43 -143.9,-143.9 z"
   id="path17"
   style="fill:#b8b8b8;fill-opacity:1" />
   <path
   class="fil1"
   d="m 1295.09,675.05 h 143.9 c 0,79.47 -64.43,143.9 -143.9,143.9 -79.47,0 -143.9,-64.43 -143.9,-143.9 z"
   id="path19"
   style="fill:#598e5d;fill-opacity:1" />
  </g>
  <path
   class="fil2 str0"
   d="m 1087.0106,5.272213 h 245.0104 l 101.908,661.434337 h 0.2781 l -0.02,1.67394 0.02,0.14684 h -0.03 c -0.9933,76.95263 -64.5878,139.0453 -142.9136,139.0453 -78.3258,0 -141.9203,-62.08288 -142.9136,-139.0453 h -0.03 -0.03 c -0.9934,76.96242 -64.5878,139.0453 -142.9136,139.0453 -78.32589,0 -141.92032,-62.08288 -142.91367,-139.0453 h -0.0298 -0.0298 c -0.98341,76.96242 -64.58778,139.0453 -142.91362,139.0453 -78.32584,0 -141.92027,-62.08288 -142.91362,-139.0453 h -0.0298 -0.0298 c -0.99335,76.96242 -64.58778,139.0453 -142.91362,139.0453 -78.32585,0 -141.92027,-62.08288 -142.91363,-139.0453 h -0.0298 -0.0298 c -0.99335,76.96242 -64.58778,139.0453 -142.91362,139.0453 -78.325846,0 -141.9202738,-62.08288 -142.9136263,-139.0453 h -0.029801 l 0.019867,-0.14684 -0.019867,-1.67394 H 5.0510118 L 106.95905,5.272213 h 245.01039 245.0104 245.02032 z"
   id="path22" />
  <g
   id="g27"
   transform="matrix(0.9933525,0,0,0.97891654,4.7828066,5.8889306)">
   <path
   class="fil3"
   d="m 460.94,421.29 c -18.82,7.49 -48.16,14.18 -88.03,20.02 -36.8,5.48 -66.75,8.18 -89.81,8.09 -16.47,-0.06 -28.17,-2.32 -34.99,-6.85 -9.29,-6.08 -13.35,-17.12 -12.1,-33.17 l 10.13,-70.06 c 8.96,-63.37 16.25,-132.31 21.89,-206.39 0.43,-5.65 3.02,-10.48 7.69,-14.36 4.75,-3.95 10.37,-5.9 16.88,-5.9 6.6,0 12.02,1.95 16.2,5.9 4.1,3.9 5.99,8.72 5.6,14.37 -5.18,75.08 -12.13,144.85 -20.77,209.01 l -5.37,32.04 c -2.09,11.81 -3.32,22.21 -3.63,31.3 42.41,0.59 96.61,-7.93 162.3,-25.48 2.86,-0.72 5.45,-1.07 7.85,-1.06 6.98,0.02 12.77,2.43 17.3,7.24 3.87,4.46 5.65,9.5 5.41,15.19 -0.39,9.15 -5.92,15.8 -16.55,20.11 z m 150.52,22.21 c -27.65,-0.1 -51.06,-9.13 -70.36,-27.02 -21.34,-19.85 -31.84,-46.21 -31.76,-79.01 0.21,-31.49 10.43,-59 30.4,-82.5 23.2,-27.64 54.56,-41.32 94.28,-41.29 31.8,0.03 55.73,12.48 71.91,37.41 13.03,20.34 19.22,44.96 18.54,73.92 -0.68,31.17 -10.29,57.99 -28.98,80.37 -21.26,25.48 -49.37,38.25 -84.03,38.12 z m 18.56,-188.45 c -23.56,-0.18 -42.12,9.38 -55.75,28.75 -10.89,15.55 -16.71,33.47 -17.33,53.73 -0.64,20.37 5.28,36.3 17.82,47.83 10.51,9.57 23.08,14.37 37.6,14.42 16.96,0.05 31.68,-5.31 44.14,-16.07 14.01,-11.88 21.56,-27.94 22.66,-48.03 2.9,-53.81 -13.48,-80.44 -49.14,-80.63 z m 232.07,-87.41 c -7.63,-0.01 -14.24,-2.27 -19.81,-6.84 -5.47,-4.52 -8.28,-9.95 -8.33,-16.21 -0.08,-6.32 2.6,-11.79 7.96,-16.27 5.42,-4.53 11.92,-6.76 19.49,-6.76 7.56,0 14.14,2.24 19.7,6.77 5.64,4.47 8.5,9.95 8.61,16.27 0.12,6.26 -2.53,11.72 -8.03,16.21 -5.44,4.57 -11.98,6.84 -19.59,6.83 z m 2.4,314.82 c -0.06,-17.16 -3.46,-60.7 -10.11,-129.55 l -9.63,-114.98 c -0.08,-6.76 2.13,-12.83 6.57,-18.16 4.5,-5.28 10.26,-7.92 17.29,-7.91 5.39,0 10.82,1.68 16.35,5.09 5.46,3.41 8.4,6.88 8.79,10.45 l 10.33,119.85 9.37,133.07 c 0.44,20.51 -6.1,39.12 -19.64,55.88 -14.78,18.38 -33.04,27.5 -54.73,27.39 -35.98,-0.17 -66.23,-25.06 -90.32,-74.16 -1.94,-3.99 -2.95,-7.54 -2.95,-10.6 0.02,-5.85 2.67,-10.85 7.83,-15.07 5.26,-4.26 11.17,-6.31 17.76,-6.29 9.72,0.05 19.91,9.56 30.6,28.71 2.75,4.98 7.38,12.23 14.17,21.7 6.54,7.46 14.09,11.21 22.54,11.24 7.36,0.04 13.62,-4.86 18.6,-14.61 3.91,-7.3 6.28,-14.69 7.18,-22.05 z m 319.63,-35.51 c -3.16,-0.03 -9.04,-3.26 -17.76,-9.69 -7.83,-5.96 -13.63,-11.26 -17.54,-15.87 -15.54,7.44 -29.24,13.04 -41.18,16.86 -11.87,3.75 -21.97,5.65 -30.03,5.61 -38.88,-0.13 -67.47,-9.81 -85.8,-28.98 -17.18,-17.85 -26.3,-44.98 -27.38,-81.17 -1,-33.81 11.62,-62.47 37.63,-86.09 25.91,-23.47 57.35,-35.13 94.37,-35.09 13.96,0.01 29.8,3.09 47.49,9.24 22.35,7.64 33.91,16.9 34.57,27.72 0.24,3.74 -1.14,7.05 -4.2,9.93 -1.33,5.23 -2.03,13.86 -2.2,25.94 -0.19,12.1 0.25,27.7 1.24,46.76 0.91,17.56 3.16,31.46 6.74,41.75 2,6.27 7.92,18.91 17.82,37.85 1.35,2.66 3.47,6.45 6.43,11.57 l 1.75,3.64 c 0.38,5.86 -1.61,10.61 -6.05,14.4 -4.43,3.78 -9.67,5.62 -15.9,5.62 z m -59.78,-148.8 c -0.33,-6 -0.27,-12.54 0.26,-19.57 0.53,-7.01 1.47,-14.43 2.87,-22.26 -6.2,-2.68 -11.42,-4.6 -15.78,-5.86 -4.36,-1.21 -7.77,-1.86 -10.4,-1.86 -25.01,-0.03 -46.24,8.65 -63.69,26.07 -17.54,17.56 -25.91,37.9 -25.06,61.09 0.85,23.22 6.28,40.77 16.24,52.5 10.05,11.84 24.65,17.76 43.8,17.83 15.88,0.05 29.19,-2.42 40.08,-7.45 5.77,-2.69 13.83,-8.12 24.1,-16.28 -7.35,-37.77 -11.43,-65.75 -12.42,-84.21 z"
   id="path24" />
   <path
   id="_1"
   class="fil0"
   d="m 473.89,453.95 c -11.25,4.47 -25.07,8.59 -41.41,12.3 -16.01,3.64 -34.18,6.96 -54.47,9.93 -17.72,2.63 -35.08,4.74 -52,6.25 v 0.01 c -16.03,1.44 -30.36,2.14 -42.91,2.1 -10.89,-0.03 -20.21,-0.81 -27.86,-2.3 -10.27,-2.01 -19.09,-5.41 -26.4,-10.23 l -0.02,0.03 c -11.12,-7.27 -19.07,-17.4 -23.8,-30.37 -3.76,-10.32 -5.15,-21.97 -4.15,-34.91 l 0.27,-2.34 10.13,-70.06 h 0.02 c 4.46,-31.58 8.48,-64.13 12.01,-97.55 v -0.14 c 3.52,-33.22 6.73,-68.72 9.59,-106.36 0.56,-7.63 2.73,-14.92 6.38,-21.76 v -0.14 c 3.46,-6.43 8.13,-12.13 13.99,-16.99 l 0.01,0.01 c 5.58,-4.62 11.83,-8.12 18.65,-10.5 6.76,-2.35 13.66,-3.54 20.68,-3.54 7.26,0 14.29,1.22 21.02,3.68 7.27,2.64 13.78,6.64 19.44,12 5.83,5.54 10.2,11.97 13.03,19.22 v 0.14 c 2.83,7.27 3.98,14.94 3.45,22.85 -2.54,36.81 -5.62,73.34 -9.21,109.52 -3.53,35.59 -7.49,69.58 -11.83,101.84 l -0.14,1.1 -3.42,20.4 c 8.5,-0.89 17.41,-2.06 26.71,-3.51 25.21,-3.95 53.97,-10.26 86.18,-18.86 l 0.56,-0.14 c 2.15,-0.54 4.73,-1.03 7.83,-1.44 l -0.01,-0.05 c 2.68,-0.37 5.64,-0.55 8.85,-0.53 6.88,0.05 13.35,1.09 19.35,3.14 -0.15,-3.05 -0.22,-6.15 -0.21,-9.28 v -0.14 c 0.12,-20.07 3.43,-38.81 9.82,-56.16 6.49,-17.6 16.1,-33.89 28.72,-48.79 l -0.01,-0.01 c 15.12,-18.01 33.09,-31.57 53.89,-40.67 20.12,-8.79 42.59,-13.18 67.4,-13.16 21.79,0.01 41.16,4.43 58.07,13.23 17.37,9.03 31.82,22.42 43.33,40.16 l 0.14,0.14 c 8.6,13.44 14.95,28.19 18.96,44.21 3.8,15.16 5.5,31.71 5.09,49.56 -0.44,19.41 -3.7,37.61 -9.82,54.56 -6.28,17.45 -15.39,33.33 -27.29,47.58 -14.04,16.83 -30.59,29.59 -49.54,38.18 -18.5,8.39 -39.03,12.55 -61.5,12.48 -18.17,-0.06 -35.13,-3.13 -50.85,-9.18 -16.1,-6.18 -30.61,-15.27 -43.49,-27.21 -4.47,-4.15 -8.58,-8.52 -12.36,-13.11 -1.35,2.2 -2.87,4.32 -4.56,6.37 l -0.06,-0.05 c -6.64,8.02 -15.31,14.17 -25.97,18.49 z m -12.95,-32.66 c -18.82,7.49 -48.16,14.18 -88.03,20.02 -36.8,5.48 -66.75,8.18 -89.81,8.09 -16.47,-0.06 -28.17,-2.32 -34.99,-6.85 -9.29,-6.08 -13.35,-17.12 -12.1,-33.17 l 10.13,-70.06 c 8.96,-63.37 16.25,-132.31 21.89,-206.39 0.43,-5.65 3.02,-10.48 7.69,-14.36 4.75,-3.95 10.37,-5.9 16.88,-5.9 6.6,0 12.02,1.95 16.2,5.9 4.1,3.9 5.99,8.72 5.6,14.37 -5.18,75.08 -12.13,144.85 -20.77,209.01 l -5.37,32.04 c -2.09,11.81 -3.32,22.21 -3.63,31.3 42.41,0.59 96.61,-7.93 162.3,-25.48 2.86,-0.72 5.45,-1.07 7.85,-1.06 6.98,0.02 12.77,2.43 17.3,7.24 3.87,4.46 5.65,9.5 5.41,15.19 -0.39,9.15 -5.92,15.8 -16.55,20.11 z m 150.52,22.21 c -27.65,-0.1 -51.06,-9.13 -70.36,-27.02 -21.34,-19.85 -31.84,-46.21 -31.76,-79.01 0.21,-31.49 10.43,-59 30.4,-82.5 23.2,-27.64 54.56,-41.32 94.28,-41.29 31.8,0.03 55.73,12.48 71.91,37.41 13.03,20.34 19.22,44.96 18.54,73.92 -0.68,31.17 -10.29,57.99 -28.98,80.37 -21.26,25.48 -49.37,38.25 -84.03,38.12 z m 18.56,-188.45 c -23.56,-0.18 -42.12,9.38 -55.75,28.75 -10.89,15.55 -16.71,33.47 -17.33,53.73 -0.64,20.37 5.28,36.3 17.82,47.83 10.51,9.57 23.08,14.37 37.6,14.42 16.96,0.05 31.68,-5.31 44.14,-16.07 14.01,-11.88 21.56,-27.94 22.66,-48.03 2.9,-53.81 -13.48,-80.44 -49.14,-80.63 z m 232.07,-87.41 c -7.63,-0.01 -14.24,-2.27 -19.81,-6.84 -5.47,-4.52 -8.28,-9.95 -8.33,-16.21 -0.08,-6.32 2.6,-11.79 7.96,-16.27 5.42,-4.53 11.92,-6.76 19.49,-6.76 7.56,0 14.14,2.24 19.7,6.77 5.64,4.47 8.5,9.95 8.61,16.27 0.12,6.26 -2.53,11.72 -8.03,16.21 -5.44,4.57 -11.98,6.84 -19.59,6.83 z m 2.4,314.82 c -0.06,-17.16 -3.46,-60.7 -10.11,-129.55 l -9.63,-114.98 c -0.08,-6.76 2.13,-12.83 6.57,-18.16 4.5,-5.28 10.26,-7.92 17.29,-7.91 5.39,0 10.82,1.68 16.35,5.09 5.46,3.41 8.4,6.88 8.79,10.45 l 10.33,119.85 9.37,133.07 c 0.44,20.51 -6.1,39.12 -19.64,55.88 -14.78,18.38 -33.04,27.5 -54.73,27.39 -35.98,-0.17 -66.23,-25.06 -90.32,-74.16 -1.94,-3.99 -2.95,-7.54 -2.95,-10.6 0.02,-5.85 2.67,-10.85 7.83,-15.07 5.26,-4.26 11.17,-6.31 17.76,-6.29 9.72,0.05 19.91,9.56 30.6,28.71 2.75,4.98 7.38,12.23 14.17,21.7 6.54,7.46 14.09,11.21 22.54,11.24 7.36,0.04 13.62,-4.86 18.6,-14.61 3.91,-7.3 6.28,-14.69 7.18,-22.05 z m 319.63,-35.51 c -3.16,-0.03 -9.04,-3.26 -17.76,-9.69 -7.83,-5.96 -13.63,-11.26 -17.54,-15.87 -15.54,7.44 -29.24,13.04 -41.18,16.86 -11.87,3.75 -21.97,5.65 -30.03,5.61 -38.88,-0.13 -67.47,-9.81 -85.8,-28.98 -17.18,-17.85 -26.3,-44.98 -27.38,-81.17 -1,-33.81 11.62,-62.47 37.63,-86.09 25.91,-23.47 57.35,-35.13 94.37,-35.09 13.96,0.01 29.8,3.09 47.49,9.24 22.35,7.64 33.91,16.9 34.57,27.72 0.24,3.74 -1.14,7.05 -4.2,9.93 -1.33,5.23 -2.03,13.86 -2.2,25.94 -0.19,12.1 0.25,27.7 1.24,46.76 0.91,17.56 3.16,31.46 6.74,41.75 2,6.27 7.92,18.91 17.82,37.85 1.35,2.66 3.47,6.45 6.43,11.57 l 1.75,3.64 c 0.38,5.86 -1.61,10.61 -6.05,14.4 -4.43,3.78 -9.67,5.62 -15.9,5.62 z m -59.78,-148.8 c -0.33,-6 -0.27,-12.54 0.26,-19.57 0.53,-7.01 1.47,-14.43 2.87,-22.26 -6.2,-2.68 -11.42,-4.6 -15.78,-5.86 -4.36,-1.21 -7.77,-1.86 -10.4,-1.86 -25.01,-0.03 -46.24,8.65 -63.69,26.07 -17.54,17.56 -25.91,37.9 -25.06,61.09 0.85,23.22 6.28,40.77 16.24,52.5 10.05,11.84 24.65,17.76 43.8,17.83 15.88,0.05 29.19,-2.42 40.08,-7.45 5.77,-2.69 13.83,-8.12 24.1,-16.28 -7.35,-37.77 -11.43,-65.75 -12.42,-84.21 z m -494.46,-7.96 c -6,-0.04 -11.14,1.02 -15.34,3.18 -4.12,2.12 -7.96,5.7 -11.47,10.69 L 603,304.01 c -3.35,4.83 -5.96,10.07 -7.77,15.68 -1.89,5.86 -2.95,12.15 -3.15,18.8 v 0.14 c -0.17,5.59 0.42,10.23 1.77,13.86 0.95,2.56 2.5,4.85 4.61,6.83 v -0.01 c 1.94,1.77 4,3.07 6.12,3.88 v 0.14 c 2.24,0.86 4.9,1.3 7.92,1.31 4.22,0 8.13,-0.65 11.63,-1.92 3.29,-1.2 6.43,-3.08 9.36,-5.61 l 0.27,-0.27 c 3.1,-2.63 5.47,-5.66 7.07,-9.07 1.82,-3.87 2.9,-8.52 3.19,-13.88 1.06,-19.68 -0.62,-33.11 -5.01,-40.3 -1.36,-2.23 -4.43,-3.38 -9.13,-3.4 z m 197.86,-96.73 c -2.67,-1.6 -5.22,-3.39 -7.65,-5.37 l -0.14,-0.14 c -6.43,-5.3 -11.49,-11.53 -15.1,-18.53 l -0.05,0.03 c -3.86,-7.51 -5.9,-15.68 -5.99,-24.45 -0.11,-8.71 1.75,-16.99 5.52,-24.67 3.58,-7.32 8.6,-13.69 14.98,-19.02 6.09,-5.1 12.81,-8.91 20.1,-11.42 6.98,-2.4 14.33,-3.61 21.99,-3.61 7.66,0 15.04,1.21 22.06,3.62 6.98,2.4 13.51,6.04 19.53,10.9 l 0.02,-0.03 c 6.72,5.33 11.93,11.5 15.61,18.44 v 0.14 c 4,7.56 6.07,15.84 6.23,24.7 0.16,8.8 -1.67,17.15 -5.5,24.92 -3.54,7.15 -8.48,13.4 -14.81,18.69 5.41,3.48 9.95,7.4 13.59,11.71 l 0.14,0.14 c 5.98,7.13 9.53,15.16 10.48,24.17 l 0.14,0.83 5.68,65.86 c 1.7,-6 3.8,-11.86 6.3,-17.59 8.32,-19.01 20.85,-36.09 37.49,-51.21 h 0.13 c 16.31,-14.78 34.42,-25.87 54.32,-33.25 19.68,-7.32 40.9,-10.95 63.62,-10.93 9.51,0.01 19.19,0.97 28.97,2.87 9.15,1.78 19.11,4.54 29.79,8.24 l 0.03,-0.08 c 15.07,5.15 27.16,11.37 36.17,18.6 13.82,11.07 21.24,24.5 22.23,40.26 h 0.01 c 0.46,7.21 -0.71,14.25 -3.61,21.14 -0.64,1.51 -1.35,2.98 -2.13,4.41 -0.39,4.62 -0.6,8.88 -0.66,12.94 -0.08,5.5 -0.02,12.04 0.18,19.53 0.17,6.38 0.54,14.82 1.06,25.03 0.39,7.6 1.06,14.25 1.96,19.88 0.77,4.83 1.74,8.87 2.85,12.08 l 0.28,0.97 c 0.43,1.35 1.88,4.65 4.36,9.92 3.14,6.67 6.88,14.16 11.12,22.28 l 0.13,0.27 1.91,3.49 h 0.01 l 3.82,6.71 1.11,2.2 1.75,3.64 3,6.25 0.44,6.7 c 0.53,8.24 -0.75,16.11 -3.9,23.67 l 0.06,0.03 c -3.11,7.44 -7.97,13.98 -14.53,19.58 l 0.06,0.07 c -5.56,4.75 -11.72,8.34 -18.44,10.7 h -0.13 c -6.57,2.3 -13.29,3.46 -20.21,3.46 l -0.14,-0.14 c -7.58,-0.04 -15.39,-2.31 -23.46,-6.71 -4.47,-2.44 -9.52,-5.74 -15.11,-9.87 l -0.27,-0.27 c -1.03,-0.78 -2.03,-1.56 -3,-2.32 -0.64,0.26 -1.27,0.52 -1.89,0.78 -7.84,3.21 -15.14,5.89 -21.86,8.04 l -0.14,0.14 c -6.91,2.18 -13.8,3.92 -20.61,5.19 -7,1.31 -13.77,1.96 -20.17,1.93 -23.3,-0.08 -43.86,-3.15 -61.61,-9.13 h -0.14 C 996,463.2 979.51,452.95 966.31,439.14 l 0.01,-0.01 c -9.39,-9.79 -17.04,-21.37 -22.91,-34.69 l 5.18,73.54 v 1.65 c 0.31,14.59 -1.85,28.52 -6.51,41.75 l -0.04,-0.01 c -4.63,13.14 -11.59,25.46 -20.81,36.88 -10.53,13.09 -22.69,23.1 -36.47,29.99 -14.13,7.07 -29.43,10.58 -45.82,10.49 -26.32,-0.11 -50.3,-9.06 -71.79,-26.7 -18.96,-15.57 -35.64,-38 -49.95,-67.16 h -0.14 c -1.69,-3.49 -3.17,-7.4 -4.37,-11.76 l -0.04,0.01 c -1.4,-5.03 -2.12,-9.81 -2.12,-14.29 h 0.14 c 0.02,-8.7 2.05,-16.88 5.98,-24.41 3.63,-6.94 8.54,-12.95 14.66,-17.95 h 0.14 c 5.82,-4.72 12.16,-8.28 18.99,-10.67 6.67,-2.34 13.69,-3.49 20.96,-3.47 h 0.14 c 14.01,0.08 26.96,5.65 38.78,16.7 h 0.14 c 6.12,5.74 12.1,13.3 17.91,22.65 -0.41,-6.2 -0.94,-13.52 -1.6,-21.96 -1.89,-24.23 -4.37,-52.17 -7.39,-83.5 l -0.14,-0.42 -9.63,-114.98 v -2.48 c -0.09,-7.72 1.13,-15.08 3.65,-22 l 0.04,0.02 c 2.49,-6.91 6.2,-13.26 11.01,-19.05 l 0.27,-0.42 c 1.02,-1.19 2.07,-2.33 3.16,-3.43 z m 261.46,106.62 c -0.18,-3.32 -0.24,-7.32 -0.19,-11.89 0.01,-1.15 0.03,-2.26 0.06,-3.32 -3.25,0.64 -6.33,1.56 -9.23,2.74 -6.08,2.48 -11.88,6.48 -17.37,11.94 -5.46,5.49 -9.41,11.14 -11.78,16.92 -2.24,5.46 -3.24,11.5 -3.01,18.05 0.3,8.41 1.38,15.59 3.19,21.46 1.26,4.09 2.88,7.3 4.78,9.54 1.24,1.46 2.86,2.6 4.85,3.41 3.26,1.32 7.36,2 12.22,2.02 5.66,0 10.82,-0.42 15.43,-1.27 3.61,-0.67 6.88,-1.68 9.76,-3.01 l 0.03,0.06 c 0.02,-0.01 0.04,-0.02 0.06,-0.03 -1.86,-10.39 -3.41,-19.83 -4.66,-28.31 -2.17,-14.73 -3.55,-27.52 -4.13,-38.31 z" />
  </g>
 </g>
</svg>
